<?xml version="1.0" standalone="no"?>
<!DOCTYPE svg PUBLIC "-//W3C//DTD SVG 20010904//EN"
 "http://www.w3.org/TR/2001/REC-SVG-20010904/DTD/svg10.dtd">
<svg version="1.0" xmlns="http://www.w3.org/2000/svg"
 width="500.000000pt" height="500.000000pt" viewBox="0 0 500.000000 500.000000"
 preserveAspectRatio="xMidYMid meet">

<g transform="translate(0.000000,500.000000) scale(0.100000,-0.100000)"
fill="#000000" stroke="none">
<path d="M0 2500 l0 -2500 2500 0 2500 0 0 2500 0 2500 -2500 0 -2500 0 0
-2500z m2265 1527 c55 -9 127 -24 160 -35 132 -41 294 -161 390 -289 114 -154
155 -286 162 -531 l5 -162 27 26 c108 109 272 193 439 225 103 19 310 7 407
-25 231 -75 380 -221 429 -421 32 -128 36 -235 36 -987 l0 -758 -285 0 -285 0
0 653 c0 690 -4 776 -46 907 -38 121 -95 174 -212 199 -70 15 -123 14 -206 -4
-120 -25 -194 -77 -263 -183 -87 -134 -94 -205 -100 -960 l-5 -612 -284 0
-284 0 0 586 0 587 -42 -8 c-24 -4 -81 -14 -128 -22 -60 -10 -203 -16 -482
-20 l-398 -5 0 -559 0 -559 -300 0 -300 0 0 1491 0 1491 733 -5 c592 -4 751
-8 832 -20z"/>
<path d="M1300 3122 l0 -432 188 0 c473 1 684 45 789 164 60 68 73 116 73 266
0 121 -1 129 -31 188 -34 68 -98 132 -177 175 -85 46 -174 57 -524 64 l-318 6
0 -431z"/>
</g>
</svg>
